<svg width="360" height="425" viewBox="0 0 360 425" fill="none" xmlns="http://www.w3.org/2000/svg">
<g clip-path="url(#clip0_22_3768)">
<rect width="360" height="425" rx="20" fill="#0A0D10"/>
<path d="M39.3281 39.8848C39.3281 40.8509 39.0866 41.7077 38.6035 42.4551C38.1204 43.2025 37.4551 43.7995 36.6074 44.2461C37.5736 44.7109 38.3392 45.3535 38.9043 46.1738C39.4694 46.985 39.752 47.9421 39.752 49.0449C39.752 50.8132 39.1504 52.2122 37.9473 53.2422C36.7441 54.263 35.1081 54.7734 33.0391 54.7734C30.9701 54.7734 29.3294 54.2585 28.1172 53.2285C26.9049 52.1986 26.2988 50.804 26.2988 49.0449C26.2988 47.9421 26.5814 46.9805 27.1465 46.1602C27.7116 45.3398 28.4727 44.7018 29.4297 44.2461C28.582 43.7995 27.9167 43.2025 27.4336 42.4551C26.9596 41.7077 26.7227 40.8509 26.7227 39.8848C26.7227 38.1895 27.2878 36.8405 28.418 35.8379C29.5482 34.8262 31.084 34.3203 33.0254 34.3203C34.9577 34.3203 36.4889 34.8216 37.6191 35.8242C38.7585 36.8177 39.3281 38.1712 39.3281 39.8848ZM35.7871 48.7578C35.7871 47.8919 35.5365 47.1992 35.0352 46.6797C34.5339 46.1602 33.8594 45.9004 33.0117 45.9004C32.1732 45.9004 31.5033 46.1602 31.002 46.6797C30.5007 47.1901 30.25 47.8828 30.25 48.7578C30.25 49.6055 30.4961 50.2891 30.9883 50.8086C31.4805 51.3281 32.1641 51.5879 33.0391 51.5879C33.8958 51.5879 34.5658 51.3372 35.0488 50.8359C35.541 50.3346 35.7871 49.6419 35.7871 48.7578ZM35.377 40.0762C35.377 39.3014 35.1719 38.6816 34.7617 38.2168C34.3516 37.7428 33.7728 37.5059 33.0254 37.5059C32.2871 37.5059 31.7129 37.7337 31.3027 38.1895C30.8926 38.6452 30.6875 39.2741 30.6875 40.0762C30.6875 40.8691 30.8926 41.5072 31.3027 41.9902C31.7129 42.4733 32.2917 42.7148 33.0391 42.7148C33.7865 42.7148 34.3607 42.4733 34.7617 41.9902C35.1719 41.5072 35.377 40.8691 35.377 40.0762ZM43.0195 44.7109L44.168 34.5938H55.3242V37.8887H47.4082L46.916 42.168C47.8548 41.6667 48.8529 41.416 49.9102 41.416C51.806 41.416 53.2917 42.0039 54.3672 43.1797C55.4427 44.3555 55.9805 46.0007 55.9805 48.1152C55.9805 49.4004 55.707 50.5534 55.1602 51.5742C54.6224 52.5859 53.8477 53.3743 52.8359 53.9395C51.8242 54.4954 50.6302 54.7734 49.2539 54.7734C48.0508 54.7734 46.9342 54.5319 45.9043 54.0488C44.8743 53.5566 44.0586 52.8685 43.457 51.9844C42.8646 51.1003 42.5501 50.0931 42.5137 48.9629H46.4238C46.5059 49.7923 46.793 50.4395 47.2852 50.9043C47.7865 51.36 48.4382 51.5879 49.2402 51.5879C50.1335 51.5879 50.8216 51.2689 51.3047 50.6309C51.7878 49.9837 52.0293 49.0723 52.0293 47.8965C52.0293 46.7663 51.7513 45.9004 51.1953 45.2988C50.6393 44.6973 49.8509 44.3965 48.8301 44.3965C47.8913 44.3965 47.1302 44.6426 46.5469 45.1348L46.1641 45.4902L43.0195 44.7109ZM70.1992 47.0078H72.4551V50.1934H70.1992V54.5H66.248V50.1934H58.0859L57.9082 47.7051L66.207 34.5938H70.1992V47.0078ZM61.8457 47.0078H66.248V39.9805L65.9883 40.4316L61.8457 47.0078Z" fill="white"/>
<path d="M90 41.414V51H92V41.414L96.293 45.707L97.707 44.293L91 37.586L84.293 44.293L85.707 45.707L90 41.414Z" fill="#00FAFF"/>
<path d="M111.398 50.5H103.945V49.4609L107.883 45.0859C108.466 44.4245 108.867 43.888 109.086 43.4766C109.31 43.0599 109.422 42.6302 109.422 42.1875C109.422 41.5938 109.242 41.1068 108.883 40.7266C108.523 40.3464 108.044 40.1562 107.445 40.1562C106.727 40.1562 106.167 40.362 105.766 40.7734C105.37 41.1797 105.172 41.7474 105.172 42.4766H103.727C103.727 41.4297 104.062 40.5833 104.734 39.9375C105.411 39.2917 106.315 38.9688 107.445 38.9688C108.503 38.9688 109.339 39.2474 109.953 39.8047C110.568 40.3568 110.875 41.0938 110.875 42.0156C110.875 43.1354 110.161 44.4688 108.734 46.0156L105.688 49.3203H111.398V50.5ZM113.594 44.7969L114.172 39.125H120V40.4609H115.398L115.055 43.5625C115.612 43.2344 116.245 43.0703 116.953 43.0703C117.99 43.0703 118.812 43.4141 119.422 44.1016C120.031 44.7839 120.336 45.7083 120.336 46.875C120.336 48.0469 120.018 48.9714 119.383 49.6484C118.753 50.3203 117.87 50.6562 116.734 50.6562C115.729 50.6562 114.909 50.3776 114.273 49.8203C113.638 49.263 113.276 48.4922 113.188 47.5078H114.555C114.643 48.1589 114.875 48.651 115.25 48.9844C115.625 49.3125 116.12 49.4766 116.734 49.4766C117.406 49.4766 117.932 49.2474 118.312 48.7891C118.698 48.3307 118.891 47.6979 118.891 46.8906C118.891 46.1302 118.682 45.5208 118.266 45.0625C117.854 44.599 117.305 44.3672 116.617 44.3672C115.987 44.3672 115.492 44.5052 115.133 44.7812L114.75 45.0938L113.594 44.7969ZM131.25 49.6641C130.688 50.3255 129.862 50.6562 128.773 50.6562C127.872 50.6562 127.185 50.3958 126.711 49.875C126.242 49.349 126.005 48.5729 126 47.5469V42.0469H127.445V47.5078C127.445 48.7891 127.966 49.4297 129.008 49.4297C130.112 49.4297 130.846 49.0182 131.211 48.1953V42.0469H132.656V50.5H131.281L131.25 49.6641ZM142 46.3672C142 47.6536 141.706 48.6901 141.117 49.4766C140.529 50.263 139.732 50.6562 138.727 50.6562C137.701 50.6562 136.893 50.3307 136.305 49.6797V53.75H134.859V42.0469H136.18L136.25 42.9844C136.839 42.2552 137.656 41.8906 138.703 41.8906C139.719 41.8906 140.521 42.2734 141.109 43.0391C141.703 43.8047 142 44.8698 142 46.2344V46.3672ZM140.555 46.2031C140.555 45.25 140.352 44.4974 139.945 43.9453C139.539 43.3932 138.982 43.1172 138.273 43.1172C137.398 43.1172 136.742 43.5052 136.305 44.2812V48.3203C136.737 49.0911 137.398 49.4766 138.289 49.4766C138.982 49.4766 139.531 49.2031 139.938 48.6562C140.349 48.1042 140.555 47.2865 140.555 46.2031ZM151.328 48.5078L152.953 42.0469H154.398L151.938 50.5H150.766L148.711 44.0938L146.711 50.5H145.539L143.086 42.0469H144.523L146.188 48.375L148.156 42.0469H149.32L151.328 48.5078ZM161.094 50.5C161.01 50.3333 160.943 50.0365 160.891 49.6094C160.219 50.3073 159.417 50.6562 158.484 50.6562C157.651 50.6562 156.966 50.4219 156.43 49.9531C155.898 49.4792 155.633 48.8802 155.633 48.1562C155.633 47.276 155.966 46.5938 156.633 46.1094C157.305 45.6198 158.247 45.375 159.461 45.375H160.867V44.7109C160.867 44.2057 160.716 43.8047 160.414 43.5078C160.112 43.2057 159.667 43.0547 159.078 43.0547C158.562 43.0547 158.13 43.1849 157.781 43.4453C157.432 43.7057 157.258 44.0208 157.258 44.3906H155.805C155.805 43.9688 155.953 43.5625 156.25 43.1719C156.552 42.776 156.958 42.4635 157.469 42.2344C157.984 42.0052 158.549 41.8906 159.164 41.8906C160.138 41.8906 160.901 42.1354 161.453 42.625C162.005 43.1094 162.292 43.7786 162.312 44.6328V48.5234C162.312 49.2995 162.411 49.9167 162.609 50.375V50.5H161.094ZM158.695 49.3984C159.148 49.3984 159.578 49.2812 159.984 49.0469C160.391 48.8125 160.685 48.5078 160.867 48.1328V46.3984H159.734C157.964 46.3984 157.078 46.9167 157.078 47.9531C157.078 48.4062 157.229 48.7604 157.531 49.0156C157.833 49.2708 158.221 49.3984 158.695 49.3984ZM168.664 43.3438C168.445 43.3073 168.208 43.2891 167.953 43.2891C167.005 43.2891 166.362 43.6927 166.023 44.5V50.5H164.578V42.0469H165.984L166.008 43.0234C166.482 42.2682 167.154 41.8906 168.023 41.8906C168.305 41.8906 168.518 41.9271 168.664 42V43.3438ZM169.492 46.2031C169.492 44.9062 169.799 43.8646 170.414 43.0781C171.029 42.2865 171.833 41.8906 172.828 41.8906C173.818 41.8906 174.602 42.2292 175.18 42.9062V38.5H176.625V50.5H175.297L175.227 49.5938C174.648 50.3021 173.844 50.6562 172.812 50.6562C171.833 50.6562 171.034 50.2552 170.414 49.4531C169.799 48.651 169.492 47.6042 169.492 46.3125V46.2031ZM170.938 46.3672C170.938 47.3255 171.135 48.0755 171.531 48.6172C171.927 49.1589 172.474 49.4297 173.172 49.4297C174.089 49.4297 174.758 49.0182 175.18 48.1953V44.3125C174.747 43.5156 174.083 43.1172 173.188 43.1172C172.479 43.1172 171.927 43.3906 171.531 43.9375C171.135 44.4844 170.938 45.2943 170.938 46.3672Z" fill="#00FAFF"/>
<path d="M315 39C316.105 39 317 38.1046 317 37C317 35.8954 316.105 35 315 35C313.895 35 313 35.8954 313 37C313 38.1046 313.895 39 315 39Z" fill="white"/>
<path d="M315 47C316.105 47 317 46.1046 317 45C317 43.8954 316.105 43 315 43C313.895 43 313 43.8954 313 45C313 46.1046 313.895 47 315 47Z" fill="white"/>
<path d="M315 55C316.105 55 317 54.1046 317 53C317 51.8954 316.105 51 315 51C313.895 51 313 51.8954 313 53C313 54.1046 313.895 55 315 55Z" fill="white"/>
<rect x="25" y="260.578" width="145.578" height="15.9091" rx="7.95454" transform="rotate(-90 25 260.578)" fill="#151A20"/>
<rect x="25" y="260.578" width="86.227" height="15.9091" rx="7.95455" transform="rotate(-90 25 260.578)" fill="#0A9396"/>
<rect x="73.9619" y="260.578" width="145.578" height="15.9091" rx="7.95454" transform="rotate(-90 73.9619 260.578)" fill="#151A20"/>
<rect x="73.9468" y="261" width="46" height="16" rx="8" transform="rotate(-90 73.9468 261)" fill="#0A9396"/>
<rect x="123.076" y="260.578" width="145.578" height="15.9091" rx="7.95454" transform="rotate(-90 123.076 260.578)" fill="#151A20"/>
<rect x="122.985" y="261" width="110" height="16" rx="8.00001" transform="rotate(-90 122.985 261)" fill="#0A9396"/>
<rect x="172.159" y="260.578" width="145.578" height="15.9091" rx="7.95454" transform="rotate(-90 172.159 260.578)" fill="#151A20"/>
<rect x="172.023" y="261" width="74" height="16" rx="8" transform="rotate(-90 172.023 261)" fill="#0A9396"/>
<rect x="221.106" y="260.578" width="145.578" height="15.9091" rx="7.95453" transform="rotate(-90 221.106 260.578)" fill="#151A20"/>
<rect x="221.106" y="260.578" width="100.785" height="15.909" rx="7.95452" transform="rotate(-90 221.106 260.578)" fill="#0A9396"/>
<rect x="270.053" y="260.578" width="145.578" height="15.909" rx="7.95448" transform="rotate(-90 270.053 260.578)" fill="#151A20"/>
<rect x="270.053" y="260.578" width="132.14" height="15.9091" rx="7.95454" transform="rotate(-90 270.053 260.578)" fill="#0A9396"/>
<rect x="319.091" y="260.578" width="145.578" height="15.9091" rx="7.95454" transform="rotate(-90 319.091 260.578)" fill="#151A20"/>
<rect x="319" y="261" width="81" height="16" rx="8" transform="rotate(-90 319 261)" fill="#0A9396"/>
<path d="M34.1328 332.064L38.6445 317.094H43.2109L36.2793 337H32L25.0957 317.094H29.6484L34.1328 332.064ZM51.0449 337.273C48.8757 337.273 47.1074 336.608 45.7402 335.277C44.3822 333.947 43.7031 332.174 43.7031 329.959V329.576C43.7031 328.09 43.9902 326.764 44.5645 325.598C45.1387 324.422 45.9499 323.519 46.998 322.891C48.0553 322.253 49.2585 321.934 50.6074 321.934C52.6309 321.934 54.2214 322.572 55.3789 323.848C56.5456 325.124 57.1289 326.933 57.1289 329.275V330.889H47.709C47.8366 331.855 48.2194 332.629 48.8574 333.213C49.5046 333.796 50.3203 334.088 51.3047 334.088C52.8268 334.088 54.0163 333.536 54.873 332.434L56.8145 334.607C56.222 335.446 55.4199 336.102 54.4082 336.576C53.3965 337.041 52.2754 337.273 51.0449 337.273ZM50.5938 325.133C49.8099 325.133 49.1719 325.397 48.6797 325.926C48.1966 326.454 47.8867 327.211 47.75 328.195H53.2461V327.881C53.2279 327.006 52.9909 326.331 52.5352 325.857C52.0794 325.374 51.4323 325.133 50.5938 325.133ZM67.6973 325.912C67.1595 325.839 66.6855 325.803 66.2754 325.803C64.7806 325.803 63.8008 326.309 63.3359 327.32V337H59.3848V322.207H63.1172L63.2266 323.971C64.0195 322.613 65.1178 321.934 66.5215 321.934C66.959 321.934 67.3691 321.993 67.752 322.111L67.6973 325.912ZM75.0254 318.57V322.207H77.5547V325.105H75.0254V332.488C75.0254 333.035 75.1302 333.427 75.3398 333.664C75.5495 333.901 75.9505 334.019 76.543 334.019C76.9805 334.019 77.3678 333.988 77.7051 333.924V336.918C76.9303 337.155 76.1328 337.273 75.3125 337.273C72.5417 337.273 71.1289 335.874 71.0742 333.076V325.105H68.9141V322.207H71.0742V318.57H75.0254ZM83.9258 337H79.9609V322.207H83.9258V337ZM79.7285 318.379C79.7285 317.786 79.9245 317.299 80.3164 316.916C80.7174 316.533 81.2598 316.342 81.9434 316.342C82.6178 316.342 83.1556 316.533 83.5566 316.916C83.9577 317.299 84.1582 317.786 84.1582 318.379C84.1582 318.98 83.9531 319.473 83.543 319.855C83.1419 320.238 82.6087 320.43 81.9434 320.43C81.278 320.43 80.7402 320.238 80.3301 319.855C79.929 319.473 79.7285 318.98 79.7285 318.379ZM93.3457 334.088C94.0749 334.088 94.6673 333.887 95.123 333.486C95.5788 333.085 95.8158 332.552 95.834 331.887H99.5391C99.5299 332.889 99.2565 333.81 98.7188 334.648C98.181 335.478 97.4427 336.125 96.5039 336.59C95.5742 337.046 94.5443 337.273 93.4141 337.273C91.2995 337.273 89.6315 336.603 88.4102 335.264C87.1888 333.915 86.5781 332.055 86.5781 329.685V329.426C86.5781 327.147 87.1842 325.329 88.3965 323.971C89.6087 322.613 91.2721 321.934 93.3867 321.934C95.237 321.934 96.7181 322.462 97.8301 323.519C98.9512 324.568 99.5208 325.967 99.5391 327.717H95.834C95.8158 326.951 95.5788 326.331 95.123 325.857C94.6673 325.374 94.0658 325.133 93.3184 325.133C92.3978 325.133 91.7005 325.47 91.2266 326.144C90.7617 326.81 90.5293 327.894 90.5293 329.398V329.809C90.5293 331.331 90.7617 332.424 91.2266 333.09C91.6914 333.755 92.3978 334.088 93.3457 334.088ZM110.367 337C110.185 336.644 110.053 336.202 109.971 335.674C109.014 336.74 107.77 337.273 106.238 337.273C104.789 337.273 103.586 336.854 102.629 336.016C101.681 335.177 101.207 334.12 101.207 332.844C101.207 331.276 101.786 330.073 102.943 329.234C104.11 328.396 105.792 327.972 107.988 327.963H109.807V327.115C109.807 326.432 109.629 325.885 109.273 325.475C108.927 325.064 108.376 324.859 107.619 324.859C106.954 324.859 106.43 325.019 106.047 325.338C105.673 325.657 105.486 326.094 105.486 326.65H101.535C101.535 325.794 101.799 325.001 102.328 324.271C102.857 323.542 103.604 322.973 104.57 322.562C105.536 322.143 106.621 321.934 107.824 321.934C109.647 321.934 111.092 322.394 112.158 323.314C113.234 324.226 113.771 325.511 113.771 327.17V333.582C113.781 334.986 113.977 336.047 114.359 336.768V337H110.367ZM107.1 334.252C107.683 334.252 108.221 334.124 108.713 333.869C109.205 333.605 109.57 333.254 109.807 332.816V330.273H108.33C106.352 330.273 105.299 330.957 105.172 332.324L105.158 332.557C105.158 333.049 105.331 333.454 105.678 333.773C106.024 334.092 106.498 334.252 107.1 334.252ZM120.977 337H117.012V316H120.977V337ZM144.547 329.74C144.547 332.11 144.041 333.96 143.029 335.291C142.018 336.613 140.605 337.273 138.791 337.273C137.187 337.273 135.906 336.658 134.949 335.428L134.771 337H131.217V316H135.168V323.533C136.079 322.467 137.278 321.934 138.764 321.934C140.568 321.934 141.981 322.599 143.002 323.93C144.032 325.251 144.547 327.115 144.547 329.521V329.74ZM140.596 329.453C140.596 327.958 140.359 326.869 139.885 326.185C139.411 325.493 138.704 325.146 137.766 325.146C136.508 325.146 135.642 325.661 135.168 326.691V332.529C135.651 333.568 136.526 334.088 137.793 334.088C139.069 334.088 139.908 333.459 140.309 332.201C140.5 331.6 140.596 330.684 140.596 329.453ZM155.566 337C155.384 336.644 155.252 336.202 155.17 335.674C154.213 336.74 152.969 337.273 151.438 337.273C149.988 337.273 148.785 336.854 147.828 336.016C146.88 335.177 146.406 334.12 146.406 332.844C146.406 331.276 146.985 330.073 148.143 329.234C149.309 328.396 150.991 327.972 153.188 327.963H155.006V327.115C155.006 326.432 154.828 325.885 154.473 325.475C154.126 325.064 153.575 324.859 152.818 324.859C152.153 324.859 151.629 325.019 151.246 325.338C150.872 325.657 150.686 326.094 150.686 326.65H146.734C146.734 325.794 146.999 325.001 147.527 324.271C148.056 323.542 148.803 322.973 149.77 322.562C150.736 322.143 151.82 321.934 153.023 321.934C154.846 321.934 156.291 322.394 157.357 323.314C158.433 324.226 158.971 325.511 158.971 327.17V333.582C158.98 334.986 159.176 336.047 159.559 336.768V337H155.566ZM152.299 334.252C152.882 334.252 153.42 334.124 153.912 333.869C154.404 333.605 154.769 333.254 155.006 332.816V330.273H153.529C151.551 330.273 150.499 330.957 150.371 332.324L150.357 332.557C150.357 333.049 150.531 333.454 150.877 333.773C151.223 334.092 151.697 334.252 152.299 334.252ZM170.318 325.912C169.781 325.839 169.307 325.803 168.896 325.803C167.402 325.803 166.422 326.309 165.957 327.32V337H162.006V322.207H165.738L165.848 323.971C166.641 322.613 167.739 321.934 169.143 321.934C169.58 321.934 169.99 321.993 170.373 322.111L170.318 325.912Z" fill="white"/>
<path d="M28.2578 359.625L31.9766 368.906L35.6953 359.625H37.6406V371H36.1406V366.57L36.2812 361.789L32.5469 371H31.3984L27.6719 361.812L27.8203 366.57V371H26.3203V359.625H28.2578ZM42.1328 371H40.6875V362.547H42.1328V371ZM40.5703 360.305C40.5703 360.07 40.6406 359.872 40.7812 359.711C40.9271 359.549 41.1406 359.469 41.4219 359.469C41.7031 359.469 41.9167 359.549 42.0625 359.711C42.2083 359.872 42.2812 360.07 42.2812 360.305C42.2812 360.539 42.2083 360.734 42.0625 360.891C41.9167 361.047 41.7031 361.125 41.4219 361.125C41.1406 361.125 40.9271 361.047 40.7812 360.891C40.6406 360.734 40.5703 360.539 40.5703 360.305ZM46.3203 362.547L46.3672 363.609C47.013 362.797 47.8568 362.391 48.8984 362.391C50.6849 362.391 51.5859 363.398 51.6016 365.414V371H50.1562V365.406C50.151 364.797 50.0104 364.346 49.7344 364.055C49.4635 363.763 49.0391 363.617 48.4609 363.617C47.9922 363.617 47.5807 363.742 47.2266 363.992C46.8724 364.242 46.5964 364.57 46.3984 364.977V371H44.9531V362.547H46.3203ZM55.8516 371H54.4062V362.547H55.8516V371ZM54.2891 360.305C54.2891 360.07 54.3594 359.872 54.5 359.711C54.6458 359.549 54.8594 359.469 55.1406 359.469C55.4219 359.469 55.6354 359.549 55.7812 359.711C55.9271 359.872 56 360.07 56 360.305C56 360.539 55.9271 360.734 55.7812 360.891C55.6354 361.047 55.4219 361.125 55.1406 361.125C54.8594 361.125 54.6458 361.047 54.5 360.891C54.3594 360.734 54.2891 360.539 54.2891 360.305ZM60.0312 362.547L60.0703 363.484C60.6901 362.755 61.526 362.391 62.5781 362.391C63.7604 362.391 64.5651 362.844 64.9922 363.75C65.2734 363.344 65.638 363.016 66.0859 362.766C66.5391 362.516 67.0729 362.391 67.6875 362.391C69.5417 362.391 70.4844 363.372 70.5156 365.336V371H69.0703V365.422C69.0703 364.818 68.9323 364.367 68.6562 364.07C68.3802 363.768 67.9167 363.617 67.2656 363.617C66.7292 363.617 66.2839 363.779 65.9297 364.102C65.5755 364.419 65.3698 364.849 65.3125 365.391V371H63.8594V365.461C63.8594 364.232 63.2578 363.617 62.0547 363.617C61.1068 363.617 60.4583 364.021 60.1094 364.828V371H58.6641V362.547H60.0312ZM77.3203 366.703C77.3203 365.406 77.6276 364.365 78.2422 363.578C78.8568 362.786 79.6615 362.391 80.6562 362.391C81.6458 362.391 82.4297 362.729 83.0078 363.406V359H84.4531V371H83.125L83.0547 370.094C82.4766 370.802 81.6719 371.156 80.6406 371.156C79.6615 371.156 78.862 370.755 78.2422 369.953C77.6276 369.151 77.3203 368.104 77.3203 366.812V366.703ZM78.7656 366.867C78.7656 367.825 78.9635 368.575 79.3594 369.117C79.7552 369.659 80.3021 369.93 81 369.93C81.9167 369.93 82.5859 369.518 83.0078 368.695V364.812C82.5755 364.016 81.9115 363.617 81.0156 363.617C80.3073 363.617 79.7552 363.891 79.3594 364.437C78.9635 364.984 78.7656 365.794 78.7656 366.867ZM86.8203 366.695C86.8203 365.867 86.9818 365.122 87.3047 364.461C87.6328 363.799 88.0859 363.289 88.6641 362.93C89.2474 362.57 89.9115 362.391 90.6562 362.391C91.8073 362.391 92.737 362.789 93.4453 363.586C94.1589 364.383 94.5156 365.443 94.5156 366.766V366.867C94.5156 367.69 94.3568 368.43 94.0391 369.086C93.7266 369.737 93.276 370.245 92.6875 370.609C92.1042 370.974 91.4323 371.156 90.6719 371.156C89.526 371.156 88.5964 370.758 87.8828 369.961C87.1745 369.164 86.8203 368.109 86.8203 366.797V366.695ZM88.2734 366.867C88.2734 367.805 88.4896 368.557 88.9219 369.125C89.3594 369.693 89.9427 369.977 90.6719 369.977C91.4062 369.977 91.9896 369.69 92.4219 369.117C92.8542 368.539 93.0703 367.732 93.0703 366.695C93.0703 365.768 92.849 365.018 92.4062 364.445C91.9688 363.867 91.3854 363.578 90.6562 363.578C89.9427 363.578 89.3672 363.862 88.9297 364.43C88.4922 364.997 88.2734 365.81 88.2734 366.867ZM98.3984 371H96.9531V359H98.3984V371ZM100.836 366.695C100.836 365.867 100.997 365.122 101.32 364.461C101.648 363.799 102.102 363.289 102.68 362.93C103.263 362.57 103.927 362.391 104.672 362.391C105.823 362.391 106.753 362.789 107.461 363.586C108.174 364.383 108.531 365.443 108.531 366.766V366.867C108.531 367.69 108.372 368.43 108.055 369.086C107.742 369.737 107.292 370.245 106.703 370.609C106.12 370.974 105.448 371.156 104.688 371.156C103.542 371.156 102.612 370.758 101.898 369.961C101.19 369.164 100.836 368.109 100.836 366.797V366.695ZM102.289 366.867C102.289 367.805 102.505 368.557 102.938 369.125C103.375 369.693 103.958 369.977 104.688 369.977C105.422 369.977 106.005 369.69 106.438 369.117C106.87 368.539 107.086 367.732 107.086 366.695C107.086 365.768 106.865 365.018 106.422 364.445C105.984 363.867 105.401 363.578 104.672 363.578C103.958 363.578 103.383 363.862 102.945 364.43C102.508 364.997 102.289 365.81 102.289 366.867ZM114.93 363.844C114.711 363.807 114.474 363.789 114.219 363.789C113.271 363.789 112.628 364.193 112.289 365V371H110.844V362.547H112.25L112.273 363.523C112.747 362.768 113.419 362.391 114.289 362.391C114.57 362.391 114.784 362.427 114.93 362.5V363.844ZM122.805 371H121.359V362.547H122.805V371ZM121.242 360.305C121.242 360.07 121.312 359.872 121.453 359.711C121.599 359.549 121.812 359.469 122.094 359.469C122.375 359.469 122.589 359.549 122.734 359.711C122.88 359.872 122.953 360.07 122.953 360.305C122.953 360.539 122.88 360.734 122.734 360.891C122.589 361.047 122.375 361.125 122.094 361.125C121.812 361.125 121.599 361.047 121.453 360.891C121.312 360.734 121.242 360.539 121.242 360.305ZM126.992 362.547L127.039 363.609C127.685 362.797 128.529 362.391 129.57 362.391C131.357 362.391 132.258 363.398 132.273 365.414V371H130.828V365.406C130.823 364.797 130.682 364.346 130.406 364.055C130.135 363.763 129.711 363.617 129.133 363.617C128.664 363.617 128.253 363.742 127.898 363.992C127.544 364.242 127.268 364.57 127.07 364.977V371H125.625V362.547H126.992ZM144.641 371C144.557 370.833 144.49 370.536 144.438 370.109C143.766 370.807 142.964 371.156 142.031 371.156C141.198 371.156 140.513 370.922 139.977 370.453C139.445 369.979 139.18 369.38 139.18 368.656C139.18 367.776 139.513 367.094 140.18 366.609C140.852 366.12 141.794 365.875 143.008 365.875H144.414V365.211C144.414 364.706 144.263 364.305 143.961 364.008C143.659 363.706 143.214 363.555 142.625 363.555C142.109 363.555 141.677 363.685 141.328 363.945C140.979 364.206 140.805 364.521 140.805 364.891H139.352C139.352 364.469 139.5 364.062 139.797 363.672C140.099 363.276 140.505 362.963 141.016 362.734C141.531 362.505 142.096 362.391 142.711 362.391C143.685 362.391 144.448 362.635 145 363.125C145.552 363.609 145.839 364.279 145.859 365.133V369.023C145.859 369.799 145.958 370.417 146.156 370.875V371H144.641ZM142.242 369.898C142.695 369.898 143.125 369.781 143.531 369.547C143.938 369.312 144.232 369.008 144.414 368.633V366.898H143.281C141.51 366.898 140.625 367.417 140.625 368.453C140.625 368.906 140.776 369.26 141.078 369.516C141.38 369.771 141.768 369.898 142.242 369.898ZM149.984 362.547L150.023 363.484C150.643 362.755 151.479 362.391 152.531 362.391C153.714 362.391 154.518 362.844 154.945 363.75C155.227 363.344 155.591 363.016 156.039 362.766C156.492 362.516 157.026 362.391 157.641 362.391C159.495 362.391 160.438 363.372 160.469 365.336V371H159.023V365.422C159.023 364.818 158.885 364.367 158.609 364.07C158.333 363.768 157.87 363.617 157.219 363.617C156.682 363.617 156.237 363.779 155.883 364.102C155.529 364.419 155.323 364.849 155.266 365.391V371H153.812V365.461C153.812 364.232 153.211 363.617 152.008 363.617C151.06 363.617 150.411 364.021 150.062 364.828V371H148.617V362.547H149.984ZM166.664 371.156C165.518 371.156 164.586 370.781 163.867 370.031C163.148 369.276 162.789 368.268 162.789 367.008V366.742C162.789 365.904 162.948 365.156 163.266 364.5C163.589 363.838 164.036 363.323 164.609 362.953C165.188 362.578 165.812 362.391 166.484 362.391C167.583 362.391 168.438 362.753 169.047 363.477C169.656 364.2 169.961 365.237 169.961 366.586V367.187H164.234C164.255 368.021 164.497 368.695 164.961 369.211C165.43 369.721 166.023 369.977 166.742 369.977C167.253 369.977 167.685 369.872 168.039 369.664C168.393 369.456 168.703 369.18 168.969 368.836L169.852 369.523C169.143 370.612 168.081 371.156 166.664 371.156ZM166.484 363.578C165.901 363.578 165.411 363.792 165.016 364.219C164.62 364.641 164.375 365.234 164.281 366H168.516V365.891C168.474 365.156 168.276 364.588 167.922 364.187C167.568 363.781 167.089 363.578 166.484 363.578ZM174.102 360.5V362.547H175.68V363.664H174.102V368.906C174.102 369.245 174.172 369.5 174.312 369.672C174.453 369.838 174.693 369.922 175.031 369.922C175.198 369.922 175.427 369.891 175.719 369.828V371C175.339 371.104 174.969 371.156 174.609 371.156C173.964 371.156 173.477 370.961 173.148 370.57C172.82 370.18 172.656 369.625 172.656 368.906V363.664H171.117V362.547H172.656V360.5H174.102ZM183.711 362.547L183.758 363.609C184.404 362.797 185.247 362.391 186.289 362.391C188.076 362.391 188.977 363.398 188.992 365.414V371H187.547V365.406C187.542 364.797 187.401 364.346 187.125 364.055C186.854 363.763 186.43 363.617 185.852 363.617C185.383 363.617 184.971 363.742 184.617 363.992C184.263 364.242 183.987 364.57 183.789 364.977V371H182.344V362.547H183.711ZM196.891 370.164C196.328 370.825 195.503 371.156 194.414 371.156C193.513 371.156 192.826 370.896 192.352 370.375C191.883 369.849 191.646 369.073 191.641 368.047V362.547H193.086V368.008C193.086 369.289 193.607 369.93 194.648 369.93C195.753 369.93 196.487 369.518 196.852 368.695V362.547H198.297V371H196.922L196.891 370.164ZM202.57 371H201.125V359H202.57V371ZM206.961 371H205.516V359H206.961V371ZM215 371C214.917 370.833 214.849 370.536 214.797 370.109C214.125 370.807 213.323 371.156 212.391 371.156C211.557 371.156 210.872 370.922 210.336 370.453C209.805 369.979 209.539 369.38 209.539 368.656C209.539 367.776 209.872 367.094 210.539 366.609C211.211 366.12 212.154 365.875 213.367 365.875H214.773V365.211C214.773 364.706 214.622 364.305 214.32 364.008C214.018 363.706 213.573 363.555 212.984 363.555C212.469 363.555 212.036 363.685 211.688 363.945C211.339 364.206 211.164 364.521 211.164 364.891H209.711C209.711 364.469 209.859 364.062 210.156 363.672C210.458 363.276 210.865 362.963 211.375 362.734C211.891 362.505 212.456 362.391 213.07 362.391C214.044 362.391 214.807 362.635 215.359 363.125C215.911 363.609 216.198 364.279 216.219 365.133V369.023C216.219 369.799 216.318 370.417 216.516 370.875V371H215ZM212.602 369.898C213.055 369.898 213.484 369.781 213.891 369.547C214.297 369.312 214.591 369.008 214.773 368.633V366.898H213.641C211.87 366.898 210.984 367.417 210.984 368.453C210.984 368.906 211.135 369.26 211.438 369.516C211.74 369.771 212.128 369.898 212.602 369.898ZM225.023 371H223.578V359H225.023V371ZM233.062 371C232.979 370.833 232.911 370.536 232.859 370.109C232.188 370.807 231.385 371.156 230.453 371.156C229.62 371.156 228.935 370.922 228.398 370.453C227.867 369.979 227.602 369.38 227.602 368.656C227.602 367.776 227.935 367.094 228.602 366.609C229.273 366.12 230.216 365.875 231.43 365.875H232.836V365.211C232.836 364.706 232.685 364.305 232.383 364.008C232.081 363.706 231.635 363.555 231.047 363.555C230.531 363.555 230.099 363.685 229.75 363.945C229.401 364.206 229.227 364.521 229.227 364.891H227.773C227.773 364.469 227.922 364.062 228.219 363.672C228.521 363.276 228.927 362.963 229.438 362.734C229.953 362.505 230.518 362.391 231.133 362.391C232.107 362.391 232.87 362.635 233.422 363.125C233.974 363.609 234.26 364.279 234.281 365.133V369.023C234.281 369.799 234.38 370.417 234.578 370.875V371H233.062ZM230.664 369.898C231.117 369.898 231.547 369.781 231.953 369.547C232.359 369.312 232.654 369.008 232.836 368.633V366.898H231.703C229.932 366.898 229.047 367.417 229.047 368.453C229.047 368.906 229.198 369.26 229.5 369.516C229.802 369.771 230.19 369.898 230.664 369.898ZM244.203 366.867C244.203 368.159 243.906 369.198 243.312 369.984C242.719 370.766 241.922 371.156 240.922 371.156C239.854 371.156 239.029 370.779 238.445 370.023L238.375 371H237.047V359H238.492V363.477C239.076 362.753 239.88 362.391 240.906 362.391C241.932 362.391 242.737 362.779 243.32 363.555C243.909 364.331 244.203 365.393 244.203 366.742V366.867ZM242.758 366.703C242.758 365.719 242.568 364.958 242.188 364.422C241.807 363.885 241.26 363.617 240.547 363.617C239.594 363.617 238.909 364.06 238.492 364.945V368.602C238.935 369.487 239.625 369.93 240.562 369.93C241.255 369.93 241.794 369.661 242.18 369.125C242.565 368.588 242.758 367.781 242.758 366.703ZM246.148 366.695C246.148 365.867 246.31 365.122 246.633 364.461C246.961 363.799 247.414 363.289 247.992 362.93C248.576 362.57 249.24 362.391 249.984 362.391C251.135 362.391 252.065 362.789 252.773 363.586C253.487 364.383 253.844 365.443 253.844 366.766V366.867C253.844 367.69 253.685 368.43 253.367 369.086C253.055 369.737 252.604 370.245 252.016 370.609C251.432 370.974 250.76 371.156 250 371.156C248.854 371.156 247.924 370.758 247.211 369.961C246.503 369.164 246.148 368.109 246.148 366.797V366.695ZM247.602 366.867C247.602 367.805 247.818 368.557 248.25 369.125C248.688 369.693 249.271 369.977 250 369.977C250.734 369.977 251.318 369.69 251.75 369.117C252.182 368.539 252.398 367.732 252.398 366.695C252.398 365.768 252.177 365.018 251.734 364.445C251.297 363.867 250.714 363.578 249.984 363.578C249.271 363.578 248.695 363.862 248.258 364.43C247.82 364.997 247.602 365.81 247.602 366.867ZM260.242 363.844C260.023 363.807 259.786 363.789 259.531 363.789C258.583 363.789 257.94 364.193 257.602 365V371H256.156V362.547H257.562L257.586 363.523C258.06 362.768 258.732 362.391 259.602 362.391C259.883 362.391 260.096 362.427 260.242 362.5V363.844ZM263.648 371H262.203V362.547H263.648V371ZM262.086 360.305C262.086 360.07 262.156 359.872 262.297 359.711C262.443 359.549 262.656 359.469 262.938 359.469C263.219 359.469 263.432 359.549 263.578 359.711C263.724 359.872 263.797 360.07 263.797 360.305C263.797 360.539 263.724 360.734 263.578 360.891C263.432 361.047 263.219 361.125 262.938 361.125C262.656 361.125 262.443 361.047 262.297 360.891C262.156 360.734 262.086 360.539 262.086 360.305ZM271.391 368.758C271.391 368.367 271.242 368.065 270.945 367.852C270.654 367.633 270.141 367.445 269.406 367.289C268.677 367.133 268.096 366.945 267.664 366.727C267.237 366.508 266.919 366.247 266.711 365.945C266.508 365.643 266.406 365.284 266.406 364.867C266.406 364.174 266.698 363.588 267.281 363.109C267.87 362.63 268.62 362.391 269.531 362.391C270.49 362.391 271.266 362.638 271.859 363.133C272.458 363.628 272.758 364.26 272.758 365.031H271.305C271.305 364.635 271.135 364.294 270.797 364.008C270.464 363.721 270.042 363.578 269.531 363.578C269.005 363.578 268.594 363.693 268.297 363.922C268 364.151 267.852 364.45 267.852 364.82C267.852 365.169 267.99 365.432 268.266 365.609C268.542 365.786 269.039 365.956 269.758 366.117C270.482 366.279 271.068 366.471 271.516 366.695C271.964 366.919 272.294 367.19 272.508 367.508C272.727 367.82 272.836 368.203 272.836 368.656C272.836 369.411 272.534 370.018 271.93 370.477C271.326 370.93 270.542 371.156 269.578 371.156C268.901 371.156 268.302 371.036 267.781 370.797C267.26 370.557 266.852 370.224 266.555 369.797C266.263 369.365 266.117 368.898 266.117 368.398H267.562C267.589 368.883 267.781 369.268 268.141 369.555C268.505 369.836 268.984 369.977 269.578 369.977C270.125 369.977 270.562 369.867 270.891 369.648C271.224 369.424 271.391 369.128 271.391 368.758ZM283.195 371.156C282.049 371.156 281.117 370.781 280.398 370.031C279.68 369.276 279.32 368.268 279.32 367.008V366.742C279.32 365.904 279.479 365.156 279.797 364.5C280.12 363.838 280.568 363.323 281.141 362.953C281.719 362.578 282.344 362.391 283.016 362.391C284.115 362.391 284.969 362.753 285.578 363.477C286.188 364.2 286.492 365.237 286.492 366.586V367.187H280.766C280.786 368.021 281.029 368.695 281.492 369.211C281.961 369.721 282.555 369.977 283.273 369.977C283.784 369.977 284.216 369.872 284.57 369.664C284.924 369.456 285.234 369.18 285.5 368.836L286.383 369.523C285.674 370.612 284.612 371.156 283.195 371.156ZM283.016 363.578C282.432 363.578 281.943 363.792 281.547 364.219C281.151 364.641 280.906 365.234 280.812 366H285.047V365.891C285.005 365.156 284.807 364.588 284.453 364.187C284.099 363.781 283.62 363.578 283.016 363.578ZM290.039 362.547L290.086 363.609C290.732 362.797 291.576 362.391 292.617 362.391C294.404 362.391 295.305 363.398 295.32 365.414V371H293.875V365.406C293.87 364.797 293.729 364.346 293.453 364.055C293.182 363.763 292.758 363.617 292.18 363.617C291.711 363.617 291.299 363.742 290.945 363.992C290.591 364.242 290.315 364.57 290.117 364.977V371H288.672V362.547H290.039ZM299.57 371H298.125V362.547H299.57V371ZM298.008 360.305C298.008 360.07 298.078 359.872 298.219 359.711C298.365 359.549 298.578 359.469 298.859 359.469C299.141 359.469 299.354 359.549 299.5 359.711C299.646 359.872 299.719 360.07 299.719 360.305C299.719 360.539 299.646 360.734 299.5 360.891C299.354 361.047 299.141 361.125 298.859 361.125C298.578 361.125 298.365 361.047 298.219 360.891C298.078 360.734 298.008 360.539 298.008 360.305ZM303.75 362.547L303.789 363.484C304.409 362.755 305.245 362.391 306.297 362.391C307.479 362.391 308.284 362.844 308.711 363.75C308.992 363.344 309.357 363.016 309.805 362.766C310.258 362.516 310.792 362.391 311.406 362.391C313.26 362.391 314.203 363.372 314.234 365.336V371H312.789V365.422C312.789 364.818 312.651 364.367 312.375 364.07C312.099 363.768 311.635 363.617 310.984 363.617C310.448 363.617 310.003 363.779 309.648 364.102C309.294 364.419 309.089 364.849 309.031 365.391V371H307.578V365.461C307.578 364.232 306.977 363.617 305.773 363.617C304.826 363.617 304.177 364.021 303.828 364.828V371H302.383V362.547H303.75ZM25.7422 389.703C25.7422 388.406 26.0495 387.365 26.6641 386.578C27.2786 385.786 28.0833 385.391 29.0781 385.391C30.0677 385.391 30.8516 385.729 31.4297 386.406V382H32.875V394H31.5469L31.4766 393.094C30.8984 393.802 30.0938 394.156 29.0625 394.156C28.0833 394.156 27.2839 393.755 26.6641 392.953C26.0495 392.151 25.7422 391.104 25.7422 389.812V389.703ZM27.1875 389.867C27.1875 390.825 27.3854 391.575 27.7812 392.117C28.1771 392.659 28.724 392.93 29.4219 392.93C30.3385 392.93 31.0078 392.518 31.4297 391.695V387.812C30.9974 387.016 30.3333 386.617 29.4375 386.617C28.7292 386.617 28.1771 386.891 27.7812 387.437C27.3854 387.984 27.1875 388.794 27.1875 389.867ZM35.2422 389.695C35.2422 388.867 35.4036 388.122 35.7266 387.461C36.0547 386.799 36.5078 386.289 37.0859 385.93C37.6693 385.57 38.3333 385.391 39.0781 385.391C40.2292 385.391 41.1589 385.789 41.8672 386.586C42.5807 387.383 42.9375 388.443 42.9375 389.766V389.867C42.9375 390.69 42.7786 391.43 42.4609 392.086C42.1484 392.737 41.6979 393.245 41.1094 393.609C40.526 393.974 39.8542 394.156 39.0938 394.156C37.9479 394.156 37.0182 393.758 36.3047 392.961C35.5964 392.164 35.2422 391.109 35.2422 389.797V389.695ZM36.6953 389.867C36.6953 390.805 36.9115 391.557 37.3438 392.125C37.7812 392.693 38.3646 392.977 39.0938 392.977C39.8281 392.977 40.4115 392.69 40.8438 392.117C41.276 391.539 41.4922 390.732 41.4922 389.695C41.4922 388.768 41.2708 388.018 40.8281 387.445C40.3906 386.867 39.8073 386.578 39.0781 386.578C38.3646 386.578 37.7891 386.862 37.3516 387.43C36.9141 387.997 36.6953 388.81 36.6953 389.867ZM46.8203 394H45.375V382H46.8203V394ZM49.2578 389.695C49.2578 388.867 49.4193 388.122 49.7422 387.461C50.0703 386.799 50.5234 386.289 51.1016 385.93C51.6849 385.57 52.349 385.391 53.0938 385.391C54.2448 385.391 55.1745 385.789 55.8828 386.586C56.5964 387.383 56.9531 388.443 56.9531 389.766V389.867C56.9531 390.69 56.7943 391.43 56.4766 392.086C56.1641 392.737 55.7135 393.245 55.125 393.609C54.5417 393.974 53.8698 394.156 53.1094 394.156C51.9635 394.156 51.0339 393.758 50.3203 392.961C49.612 392.164 49.2578 391.109 49.2578 389.797V389.695ZM50.7109 389.867C50.7109 390.805 50.9271 391.557 51.3594 392.125C51.7969 392.693 52.3802 392.977 53.1094 392.977C53.8438 392.977 54.4271 392.69 54.8594 392.117C55.2917 391.539 55.5078 390.732 55.5078 389.695C55.5078 388.768 55.2865 388.018 54.8438 387.445C54.4062 386.867 53.8229 386.578 53.0938 386.578C52.3802 386.578 51.8047 386.862 51.3672 387.43C50.9297 387.997 50.7109 388.81 50.7109 389.867ZM63.3516 386.844C63.1328 386.807 62.8958 386.789 62.6406 386.789C61.6927 386.789 61.0495 387.193 60.7109 388V394H59.2656V385.547H60.6719L60.6953 386.523C61.1693 385.768 61.8411 385.391 62.7109 385.391C62.9922 385.391 63.2057 385.427 63.3516 385.5V386.844ZM68.5391 394.156C67.3932 394.156 66.4609 393.781 65.7422 393.031C65.0234 392.276 64.6641 391.268 64.6641 390.008V389.742C64.6641 388.904 64.8229 388.156 65.1406 387.5C65.4635 386.838 65.9115 386.323 66.4844 385.953C67.0625 385.578 67.6875 385.391 68.3594 385.391C69.4583 385.391 70.3125 385.753 70.9219 386.477C71.5312 387.2 71.8359 388.237 71.8359 389.586V390.187H66.1094C66.1302 391.021 66.3724 391.695 66.8359 392.211C67.3047 392.721 67.8984 392.977 68.6172 392.977C69.1276 392.977 69.5599 392.872 69.9141 392.664C70.2682 392.456 70.5781 392.18 70.8438 391.836L71.7266 392.523C71.0182 393.612 69.9557 394.156 68.5391 394.156ZM68.3594 386.578C67.776 386.578 67.2865 386.792 66.8906 387.219C66.4948 387.641 66.25 388.234 66.1562 389H70.3906V388.891C70.349 388.156 70.151 387.588 69.7969 387.187C69.4427 386.781 68.9635 386.578 68.3594 386.578ZM81.875 392.977C82.3906 392.977 82.8411 392.82 83.2266 392.508C83.612 392.195 83.8255 391.805 83.8672 391.336H85.2344C85.2083 391.82 85.0417 392.281 84.7344 392.719C84.4271 393.156 84.0156 393.505 83.5 393.766C82.9896 394.026 82.4479 394.156 81.875 394.156C80.724 394.156 79.8073 393.773 79.125 393.008C78.4479 392.237 78.1094 391.185 78.1094 389.852V389.609C78.1094 388.786 78.2604 388.055 78.5625 387.414C78.8646 386.773 79.2969 386.276 79.8594 385.922C80.4271 385.568 81.0964 385.391 81.8672 385.391C82.8151 385.391 83.6016 385.674 84.2266 386.242C84.8568 386.81 85.1927 387.547 85.2344 388.453H83.8672C83.8255 387.906 83.6172 387.458 83.2422 387.109C82.8724 386.755 82.4141 386.578 81.8672 386.578C81.1328 386.578 80.5625 386.844 80.1562 387.375C79.7552 387.901 79.5547 388.664 79.5547 389.664V389.937C79.5547 390.911 79.7552 391.661 80.1562 392.187C80.5573 392.713 81.1302 392.977 81.875 392.977ZM86.9766 389.695C86.9766 388.867 87.138 388.122 87.4609 387.461C87.7891 386.799 88.2422 386.289 88.8203 385.93C89.4036 385.57 90.0677 385.391 90.8125 385.391C91.9635 385.391 92.8932 385.789 93.6016 386.586C94.3151 387.383 94.6719 388.443 94.6719 389.766V389.867C94.6719 390.69 94.513 391.43 94.1953 392.086C93.8828 392.737 93.4323 393.245 92.8438 393.609C92.2604 393.974 91.5885 394.156 90.8281 394.156C89.6823 394.156 88.7526 393.758 88.0391 392.961C87.3307 392.164 86.9766 391.109 86.9766 389.797V389.695ZM88.4297 389.867C88.4297 390.805 88.6458 391.557 89.0781 392.125C89.5156 392.693 90.099 392.977 90.8281 392.977C91.5625 392.977 92.1458 392.69 92.5781 392.117C93.0104 391.539 93.2266 390.732 93.2266 389.695C93.2266 388.768 93.0052 388.018 92.5625 387.445C92.125 386.867 91.5417 386.578 90.8125 386.578C90.099 386.578 89.5234 386.862 89.0859 387.43C88.6484 387.997 88.4297 388.81 88.4297 389.867ZM98.3516 385.547L98.3984 386.609C99.0443 385.797 99.888 385.391 100.93 385.391C102.716 385.391 103.617 386.398 103.633 388.414V394H102.188V388.406C102.182 387.797 102.042 387.346 101.766 387.055C101.495 386.763 101.07 386.617 100.492 386.617C100.023 386.617 99.612 386.742 99.2578 386.992C98.9036 387.242 98.6276 387.57 98.4297 387.977V394H96.9844V385.547H98.3516ZM111.234 391.758C111.234 391.367 111.086 391.065 110.789 390.852C110.497 390.633 109.984 390.445 109.25 390.289C108.521 390.133 107.94 389.945 107.508 389.727C107.081 389.508 106.763 389.247 106.555 388.945C106.352 388.643 106.25 388.284 106.25 387.867C106.25 387.174 106.542 386.588 107.125 386.109C107.714 385.63 108.464 385.391 109.375 385.391C110.333 385.391 111.109 385.638 111.703 386.133C112.302 386.628 112.602 387.26 112.602 388.031H111.148C111.148 387.635 110.979 387.294 110.641 387.008C110.307 386.721 109.885 386.578 109.375 386.578C108.849 386.578 108.438 386.693 108.141 386.922C107.844 387.151 107.695 387.45 107.695 387.82C107.695 388.169 107.833 388.432 108.109 388.609C108.385 388.786 108.883 388.956 109.602 389.117C110.326 389.279 110.911 389.471 111.359 389.695C111.807 389.919 112.138 390.19 112.352 390.508C112.57 390.82 112.68 391.203 112.68 391.656C112.68 392.411 112.378 393.018 111.773 393.477C111.169 393.93 110.385 394.156 109.422 394.156C108.745 394.156 108.146 394.036 107.625 393.797C107.104 393.557 106.695 393.224 106.398 392.797C106.107 392.365 105.961 391.898 105.961 391.398H107.406C107.432 391.883 107.625 392.268 107.984 392.555C108.349 392.836 108.828 392.977 109.422 392.977C109.969 392.977 110.406 392.867 110.734 392.648C111.068 392.424 111.234 392.128 111.234 391.758ZM118.57 394.156C117.424 394.156 116.492 393.781 115.773 393.031C115.055 392.276 114.695 391.268 114.695 390.008V389.742C114.695 388.904 114.854 388.156 115.172 387.5C115.495 386.838 115.943 386.323 116.516 385.953C117.094 385.578 117.719 385.391 118.391 385.391C119.49 385.391 120.344 385.753 120.953 386.477C121.562 387.2 121.867 388.237 121.867 389.586V390.187H116.141C116.161 391.021 116.404 391.695 116.867 392.211C117.336 392.721 117.93 392.977 118.648 392.977C119.159 392.977 119.591 392.872 119.945 392.664C120.299 392.456 120.609 392.18 120.875 391.836L121.758 392.523C121.049 393.612 119.987 394.156 118.57 394.156ZM118.391 386.578C117.807 386.578 117.318 386.792 116.922 387.219C116.526 387.641 116.281 388.234 116.188 389H120.422V388.891C120.38 388.156 120.182 387.588 119.828 387.187C119.474 386.781 118.995 386.578 118.391 386.578ZM123.695 389.703C123.695 388.375 124 387.325 124.609 386.555C125.219 385.779 126.036 385.391 127.062 385.391C128.062 385.391 128.852 385.727 129.43 386.398L129.492 385.547H130.82V397.25H129.375V393.219C128.792 393.844 128.016 394.156 127.047 394.156C126.026 394.156 125.211 393.76 124.602 392.969C123.997 392.172 123.695 391.117 123.695 389.805V389.703ZM125.141 389.867C125.141 390.836 125.344 391.596 125.75 392.148C126.161 392.7 126.714 392.977 127.406 392.977C128.266 392.977 128.922 392.596 129.375 391.836V387.695C128.917 386.95 128.266 386.578 127.422 386.578C126.724 386.578 126.169 386.857 125.758 387.414C125.346 387.966 125.141 388.784 125.141 389.867ZM138.859 393.164C138.297 393.825 137.471 394.156 136.383 394.156C135.482 394.156 134.794 393.896 134.32 393.375C133.852 392.849 133.615 392.073 133.609 391.047V385.547H135.055V391.008C135.055 392.289 135.576 392.93 136.617 392.93C137.721 392.93 138.456 392.518 138.82 391.695V385.547H140.266V394H138.891L138.859 393.164ZM148.188 394C148.104 393.833 148.036 393.536 147.984 393.109C147.312 393.807 146.51 394.156 145.578 394.156C144.745 394.156 144.06 393.922 143.523 393.453C142.992 392.979 142.727 392.38 142.727 391.656C142.727 390.776 143.06 390.094 143.727 389.609C144.398 389.12 145.341 388.875 146.555 388.875H147.961V388.211C147.961 387.706 147.81 387.305 147.508 387.008C147.206 386.706 146.76 386.555 146.172 386.555C145.656 386.555 145.224 386.685 144.875 386.945C144.526 387.206 144.352 387.521 144.352 387.891H142.898C142.898 387.469 143.047 387.062 143.344 386.672C143.646 386.276 144.052 385.963 144.562 385.734C145.078 385.505 145.643 385.391 146.258 385.391C147.232 385.391 147.995 385.635 148.547 386.125C149.099 386.609 149.385 387.279 149.406 388.133V392.023C149.406 392.799 149.505 393.417 149.703 393.875V394H148.188ZM145.789 392.898C146.242 392.898 146.672 392.781 147.078 392.547C147.484 392.312 147.779 392.008 147.961 391.633V389.898H146.828C145.057 389.898 144.172 390.417 144.172 391.453C144.172 391.906 144.323 392.26 144.625 392.516C144.927 392.771 145.315 392.898 145.789 392.898ZM154.133 383.5V385.547H155.711V386.664H154.133V391.906C154.133 392.245 154.203 392.5 154.344 392.672C154.484 392.838 154.724 392.922 155.062 392.922C155.229 392.922 155.458 392.891 155.75 392.828V394C155.37 394.104 155 394.156 154.641 394.156C153.995 394.156 153.508 393.961 153.18 393.57C152.852 393.18 152.688 392.625 152.688 391.906V386.664H151.148V385.547H152.688V383.5H154.133ZM159.867 383.5V385.547H161.445V386.664H159.867V391.906C159.867 392.245 159.938 392.5 160.078 392.672C160.219 392.838 160.458 392.922 160.797 392.922C160.964 392.922 161.193 392.891 161.484 392.828V394C161.104 394.104 160.734 394.156 160.375 394.156C159.729 394.156 159.242 393.961 158.914 393.57C158.586 393.18 158.422 392.625 158.422 391.906V386.664H156.883V385.547H158.422V383.5H159.867ZM163.672 393.242C163.672 392.992 163.745 392.784 163.891 392.617C164.042 392.45 164.266 392.367 164.562 392.367C164.859 392.367 165.083 392.45 165.234 392.617C165.391 392.784 165.469 392.992 165.469 393.242C165.469 393.482 165.391 393.682 165.234 393.844C165.083 394.005 164.859 394.086 164.562 394.086C164.266 394.086 164.042 394.005 163.891 393.844C163.745 393.682 163.672 393.482 163.672 393.242ZM168.391 393.242C168.391 392.992 168.464 392.784 168.609 392.617C168.76 392.45 168.984 392.367 169.281 392.367C169.578 392.367 169.802 392.45 169.953 392.617C170.109 392.784 170.188 392.992 170.188 393.242C170.188 393.482 170.109 393.682 169.953 393.844C169.802 394.005 169.578 394.086 169.281 394.086C168.984 394.086 168.76 394.005 168.609 393.844C168.464 393.682 168.391 393.482 168.391 393.242ZM173.109 393.242C173.109 392.992 173.182 392.784 173.328 392.617C173.479 392.45 173.703 392.367 174 392.367C174.297 392.367 174.521 392.45 174.672 392.617C174.828 392.784 174.906 392.992 174.906 393.242C174.906 393.482 174.828 393.682 174.672 393.844C174.521 394.005 174.297 394.086 174 394.086C173.703 394.086 173.479 394.005 173.328 393.844C173.182 393.682 173.109 393.482 173.109 393.242Z" fill="#CED8E1"/>
</g>
<defs>
<clipPath id="clip0_22_3768">
<rect width="360" height="425" rx="20" fill="white"/>
</clipPath>
</defs>
</svg>
